# AST/ASF file generated using VICON BodyLanguage
# -----------------------------------------------
:version 1.10
:name VICON
:units
  mass 1.0
  length 0.45
  angle deg
:documentation
   .ast/.asf automatically generated from VICON data using
   VICON BodyBuilder and BodyLanguage model FoxedUp or BRILLIANT.MOD
:root
   order TX TY TZ RX RY RZ
   axis XYZ
   position 0 0 0  
   orientation 0 0 0 
:bonedata
  begin
     id 1 
     name lhipjoint
     direction 0.575328 -0.747301 0.332475 
     length 2.40933 
     axis 0 0 0  XYZ
  end
  begin
     id 2 
     name lfemur
     direction 0.34202 -0.939693 0  
     length 7.31453  
     axis 0 0 20  XYZ
    dof rx ry rz
    limits (-160.0 20.0)
           (-70.0 70.0)
           (-60.0 70.0)
  end
  begin
     id 3 
     name ltibia
     direction 0.34202 -0.939693 0   
     length 7.82185   
     axis 0 0 20   XYZ
    dof rx
    limits (-10.0 170.0)
  end
  begin
     id 4 
     name lfoot
     direction 0.0795993 -0.218697 0.972541   
     length 2.19173   
     axis -90 7.62852e-016 20   XYZ
    dof rx rz
    limits (-45.0 90.0)
           (-70.0 20.0)
  end
  begin
     id 5 
     name ltoes
     direction 1.53537e-011 -4.21894e-011 1   
     length 1.10023   
     axis -90 7.62852e-016 20   XYZ
    dof rx
    limits (-90.0 20.0)
  end
  begin
     id 6 
     name rhipjoint
     direction -0.513884 -0.783789 0.348708   
     length 2.29716  
     axis 0 0 0  XYZ 
  end
  begin
     id 7 
     name rfemur
     direction -0.34202 -0.939693 0   
     length 7.59573   
     axis 0 0 -20   XYZ
    dof rx ry rz
    limits (-160.0 20.0)
           (-70.0 70.0)
           (-70.0 60.0)
  end
  begin
     id 8 
     name rtibia
     direction -0.34202 -0.939693 0   
     length 7.66402   
     axis 0 0 -20   XYZ
    dof rx
    limits (-10.0 170.0)
 end
 begin
     id 9 
     name rfoot
     direction -0.137793 -0.378584 0.915253   
     length 2.27056  
     axis -90 -7.62852e-016 -20   XYZ
    dof rx rz
    limits (-45.0 90.0)
           (-20.0 70.0)
  end
  begin
     id 10 
     name rtoes
     direction -1.53493e-011 -4.22159e-011 1   
     length 1.11766   
     axis -90 -7.62852e-016 -20   XYZ
    dof rx
    limits (-90.0 20.0)
  end
  begin
     id 11 
     name lowerback
     direction -0.00732775 0.998356 -0.05685   
     length 2.16513   
     axis 0 0 0   XYZ
    dof rx ry rz
    limits (-20.0 45.0)
           (-30.0 30.0)
           (-30.0 30.0)
  end
  begin
     id 12 
     name upperback
     direction 0.0218081 0.999627 -0.0164647   
     length 2.16755   
     axis 0 0 0   XYZ
    dof rx ry rz
    limits (-20.0 45.0)
           (-30.0 30.0)
           (-30.0 30.0)
  end
  begin
     id 13 
     name thorax
     direction 0.02365 0.999661 0.0108914   
     length 2.16932   
     axis 0 0 0   XYZ
    dof rx ry rz
    limits (-20.0 45.0)
           (-30.0 30.0)
           (-30.0 30.0)
  end
  begin
     id 14 
     name lowerneck
     direction -0.0523929 0.978385 0.200044   
     length 1.63877   
     axis 0 0 0   XYZ
    dof rx ry rz
    limits (-20.0 45.0)
           (-30.0 30.0)
           (-30.0 30.0)
  end
  begin
     id 15 
     name upperneck
     direction 0.0448674 0.981321 -0.187074   
     length 1.69014   
     axis 0 0 0   XYZ
    dof rx ry rz
    limits (-20.0 45.0)
           (-30.0 30.0)
           (-30.0 30.0)
  end
  begin
     id 16
     name head
     direction 0.0199089 0.996118 -0.0857429  
     length 1.70094  
     axis 0 0 0   XYZ
    dof rx ry rz
    limits (-20.0 45.0)
           (-30.0 30.0)
           (-30.0 30.0)
  end
  begin
     id 17 
     name lclavicle
     direction 0.940366 0.30191 -0.156722  
     length 3.37521  
     axis 0 0 0   XYZ
    dof ry rz
    limits (-20.0 10.0)
           (0.0 20.0)
  end
  begin
     id 18 
     name lhumerus
     direction 1 -4.4897e-011 -1.7911e-027   
     length 5.25287   
     axis 180 -30 -90   XYZ
    dof rx ry rz
    limits (-60.0 90.0)
           (-90.0 90.0)
           (-90.0 90.0)
  end
  begin
     id 19
     name lradius
     direction 1 -4.48951e-011 1.04424e-027   
     length 3.51014   
     axis 180 -30 -90   XYZ
    dof rx
    limits (-10.0 170.0)
  end
  begin
     id 20
     name lwrist
     direction 1 -4.48997e-011 -9.5942e-028   
     length 1.75507   
     axis 8.48502e-016 90 90   XYZ
    dof ry
    limits (-180.0 0.0)
 end
  begin
     id 21 
     name lhand
     direction 1 -4.48831e-011 -1.90777e-027   
     length 0.706179   
     axis 1.22306e-015 90 90   XYZ
    dof rx rz
    limits (-90.0 90.0)
           (-45.0 45.0)
  end
  begin
     id 22 
     name lfingers
     direction 1 -4.49108e-011 -3.85244e-027   
     length 0.569339   
     axis 2.44611e-015 90 90   XYZ
    dof rx
    limits (0.0 90.0)
  end
  begin
     id 23
     name lthumb
     direction 0.707107 -6.34953e-011 0.707107   
     length 0.817461   
     axis -90 45 -1.62303e-014   XYZ
    dof rx rz
    limits (-45.0 45.0)
           (-45.0 45.0)
  end
  begin
     id 24 
     name rclavicle
     direction -0.905329 0.382405 -0.184787   
     length 3.30787  
     axis 0 0 0   XYZ 
    dof ry rz
    limits (-10.0 20.0)
           (-20.0 0.0)
  end
  begin
     id 25 
     name rhumerus
     direction -1 -4.48953e-011 -9.15316e-029  
     length 5.28721   
     axis 180 30 90   XYZ
    dof rx ry rz
    limits (-90.0 60.0)
           (-90.0 90.0)
           (-90.0 90.0)
  end
  begin
     id 26 
     name rradius
     direction -1 -4.48987e-011 9.37824e-028   
     length 3.50544   
     axis 180 30 90   XYZ
    dof rx
    limits (-10.0 170.0)
  end
  begin
     id 27 
     name rwrist
     direction -1 -4.48967e-011 -9.58414e-028   
     length 1.75272   
     axis 8.48502e-016 -90 -90   XYZ
    dof ry
    limits (-180.0 0.0)
  end
  begin
     id 28
     name rhand
     direction -1 -4.48904e-011 -1.91266e-027   
     length 0.884996   
     axis 1.22306e-015 -90 -90   XYZ
    dof rx rz
    limits (-90.0 90.0)
           (-45.0 45.0)
  end
  begin
     id 29
     name rfingers
     direction -1 -4.4909e-011 -3.85015e-027   
     length 0.713507   
     axis 2.44611e-015 -90 -90   XYZ
    dof rx
    limits (0.0 90.0)
  end
  begin
     id 30
     name rthumb
     direction -0.707107 -6.34853e-011 0.707107   
     length 1.02446   
     axis -90 -45 1.62303e-014   XYZ
    dof rx rz
    limits (-45.0 45.0)
           (-45.0 45.0)
  end
:hierarchy
  begin
    root lhipjoint rhipjoint lowerback
    lhipjoint lfemur
    lfemur ltibia
    ltibia lfoot
    lfoot ltoes
    rhipjoint rfemur
    rfemur rtibia
    rtibia rfoot
    rfoot rtoes
    lowerback upperback
    upperback thorax
    thorax lowerneck lclavicle rclavicle
    lowerneck upperneck
    upperneck head
    lclavicle lhumerus
    lhumerus lradius
    lradius lwrist
    lwrist lhand lthumb
    lhand lfingers
    rclavicle rhumerus
    rhumerus rradius
    rradius rwrist
    rwrist rhand rthumb
    rhand rfingers
  end

#!OML:ASF F:\twosubjects\two\Thursday\Session 1\justin.ASF
:FULLY-SPECIFIED
:DEGREES
99
root -3.01224 18.4547 14.8285 -0.415368 25.6206 -1.70396
lowerback 1.93929 5.96354 2.36696
upperback 3.17645 7.93637 3.51902
thorax 2.00936 3.98845 2.28254
lowerneck -12.8326 17.1275 3.14465
upperneck 31.432 26.1055 -3.27487
head 13.6285 11.5993 2.40202
rclavicle 1.1291e-013 -1.19271e-014
rhumerus -11.3678 0.928692 -84.3124
rradius 40.2063
rwrist -6.87597
rhand -18.1753 11.7072
rfingers 7.12502
rthumb 8.10116 -18.1175
lclavicle 1.1291e-013 -1.19271e-014
lhumerus -32.3016 31.595 76.3578
lradius 16.2163
lwrist -30.9403
lhand -0.706844 39.6984
lfingers 7.12502
lthumb 24.9132 68.0947
rfemur -6.92779 -7.27692 24.4614
rtibia 24.382
rfoot -17.9457 -10.2265
rtoes -9.15737
lfemur -22.3157 -4.94111 -11.373
ltibia 51.2134
lfoot -6.07805 -2.85873
ltoes -16.1278
100
root -2.99185 18.42 14.9136 -0.252434 25.651 -1.62296
lowerback 1.9016 6.00723 2.36032
upperback 3.07972 7.99651 3.40234
thorax 1.94485 4.01856 2.16483
lowerneck -12.5424 17.0498 3.36443
upperneck 31.032 26.045 -3.76049
head 13.5188 11.568 2.15359
rclavicle -1.76918e-014 5.56597e-015
rhumerus -11.2606 0.957135 -84.3335
rradius 41.4388
rwrist -7.06664
rhand -18.0212 11.6027
rfingers 7.12502
rthumb 8.24992 -18.2162
lclavicle -1.76918e-014 5.56597e-015
lhumerus -32.5776 31.9512 76.0571
lradius 16.2444
lwrist -31.0242
lhand -0.656744 39.6146
lfingers 7.12502
lthumb 24.9612 68.0042
rfemur -6.81638 -7.39393 24.4353
rtibia 24.6207
rfoot -18.2606 -10.2023
rtoes -9.02548
lfemur -22.7002 -4.88176 -11.6738
ltibia 49.5528
lfoot -6.26253 -2.49855
ltoes -18.8234
101
root -2.97152 18.4131 15.0001 -0.271932 25.5862 -1.76631
lowerback 1.97161 6.05813 2.56733
upperback 3.00904 8.07068 3.36118
thorax 1.86619 4.05931 1.99882
lowerneck -12.3716 17.077 3.61778
upperneck 30.9158 26.1318 -4.08343
head 13.5373 11.6019 2.01315
rclavicle 1.47697e-013 2.94201e-014
rhumerus -11.0634 1.48572 -84.2597
rradius 42.4908
rwrist -7.44723
rhand -18.1603 11.58
rfingers 7.12502
rthumb 8.11566 -18.2442
lclavicle 1.47697e-013 2.94201e-014
lhumerus -32.811 31.5899 76.1324
lradius 16.5326
lwrist -30.114
lhand -1.06846 39.3131
lfingers 7.12502
lthumb 24.5666 67.757
rfemur -6.72242 -7.26187 24.5963
rtibia 24.8692
rfoot -18.67 -10.2367
rtoes -8.59599
lfemur -22.7727 -4.90025 -11.7036
ltibia 47.7185
lfoot -6.42773 -2.53224
ltoes -16.8946
102
root -2.96099 18.4183 15.0924 -0.450296 25.5412 -2.16576
lowerback 2.13102 6.14794 2.9485
upperback 2.9571 8.20195 3.39314
thorax 1.77125 4.13117 1.80468
lowerneck -12.5497 17.1289 3.56867
upperneck 31.1219 26.1716 -3.83573
head 13.6102 11.6251 2.13835
rclavicle 8.28932e-014 2.06736e-014
rhumerus -10.3862 2.70192 -83.9499
rradius 42.6455
rwrist -8.24044
rhand -18.8776 11.905
rfingers 7.12502
rthumb 7.42335 -17.9447
lclavicle 8.28932e-014 2.06736e-014
lhumerus -32.9581 30.8469 76.4433
lradius 17.1114
lwrist -28.9775
lhand -1.01501 39.8505
lfingers 7.12502
lthumb 24.6178 68.2874
rfemur -6.58042 -6.71752 25.0768
rtibia 25.027
rfoot -19.2573 -10.5783
rtoes -7.31506
lfemur -22.7175 -4.89889 -11.3932
ltibia 45.6864
lfoot -7.00427 -2.81184
ltoes -13.6377
103
root -2.94678 18.4079 15.1907 -0.42963 25.5601 -2.19582
lowerback 2.10685 6.26775 2.99888
upperback 2.99235 8.35966 3.3335
thorax 1.8361 4.21166 1.72341
lowerneck -12.9161 17.083 3.15491
upperneck 31.1359 26.0491 -3.4432
head 13.5474 11.5659 2.32548
rclavicle -1.02374e-013 1.11319e-014
rhumerus -10.589 2.37928 -83.7831
rradius 44.4549
rwrist -7.85368
rhand -18.8616 11.7122
rfingers 7.12502
rthumb 7.43876 -18.137
lclavicle -1.02374e-013 1.11319e-014
lhumerus -32.9116 30.7497 76.5258
lradius 17.4434
lwrist -28.6274
lhand -0.627779 40.1463
lfingers 7.12502
lthumb 24.9889 68.5321
rfemur -6.33891 -6.47762 25.2193
rtibia 25.252
rfoot -19.9648 -10.8499
rtoes -6.44944
lfemur -22.6434 -4.73021 -11.5155
ltibia 43.2997
lfoot -7.64792 -3.06061
ltoes -12.7657
104
root -2.91874 18.3961 15.2896 -0.315617 25.6555 -2.08305
lowerback 1.93288 6.36623 3.0214
upperback 3.03703 8.48109 3.21692
thorax 1.99939 4.27417 1.61967
lowerneck -12.871 17.0463 2.95989
upperneck 30.7578 25.9793 -3.48884
head 13.3514 11.5382 2.28675
rclavicle -9.75039e-014 2.22639e-014
rhumerus -10.2003 3.17817 -83.3905
rradius 45.148
rwrist -8.87631
rhand -19.3024 11.7096
rfingers 7.12502
rthumb 7.01327 -18.1542
lclavicle -9.75039e-014 2.22639e-014
lhumerus -32.69 30.7109 76.6294
lradius 17.4918
lwrist -28.2947
lhand -0.482505 38.9268
lfingers 7.12502
lthumb 25.1281 67.2931
rfemur -6.34031 -6.69446 25.1471
rtibia 26.0745
rfoot -21.0298 -10.9037
rtoes -6.37385
lfemur -22.3951 -4.45218 -11.9467
ltibia 40.2464
lfoot -7.37583 -3.24703
ltoes -15.4112
105
root -2.89109 18.3524 15.3831 -0.114836 25.683 -2.02958
lowerback 1.74927 6.48013 3.03496
upperback 2.97374 8.62657 3.08499
thorax 2.05806 4.34746 1.49854
lowerneck -12.7968 17.0397 3.13115
upperneck 30.7015 25.9422 -3.546
head 13.3473 11.5371 2.23305
rclavicle -5.34731e-014 -1.35174e-014
rhumerus -9.97937 3.84912 -83.1351
rradius 45.7725
rwrist -9.70026
rhand -19.8739 12.1791
rfingers 7.12502
rthumb 6.46157 -17.7023
lclavicle -5.34731e-014 -1.35174e-014
lhumerus -32.5856 30.0556 76.9135
lradius 17.7888
lwrist -27.326
lhand -0.437143 37.3261
lfingers 7.12502
lthumb 25.1716 65.6864
rfemur -6.6615 -6.74197 25.137
rtibia 27.0603
rfoot -21.8256 -10.9831
rtoes -6.38944
lfemur -22.5643 -3.13125 -12.8471
ltibia 36.7144
lfoot -7.22701 -2.87682
ltoes -32.0646
106
root -2.8665 18.2426 15.4774 0.092871 25.658 -1.97641
lowerback 1.5942 6.59181 2.88541
upperback 2.86429 8.77186 3.00599
thorax 2.02089 4.41665 1.50973
lowerneck -12.9457 17.0126 3.19432
upperneck 31.1044 25.8591 -3.23973
head 13.5 11.5157 2.35514
rclavicle 3.84648e-014 -3.18055e-014
rhumerus -10.0807 3.94038 -83.0373
rradius 46.6707
rwrist -9.63092
rhand -20.2274 12.713
rfingers 7.12502
rthumb 6.12025 -17.1786
lclavicle 3.84648e-014 -3.18055e-014
lhumerus -32.7337 28.9868 77.3447
lradius 18.4278
lwrist -25.7238
lhand -0.359323 37.3236
lfingers 7.12502
lthumb 25.2462 65.6733
rfemur -7.08843 -6.59445 25.1811
rtibia 28.2082
rfoot -21.9945 -11.17
rtoes -6.56146
lfemur -23.1707 0.152347 -14.7159
ltibia 32.7444
lfoot -9.35813 -1.73348
ltoes -47.3187
107
root -2.84739 18.2085 15.5794 -0.0172659 25.5986 -2.24545
lowerback 1.56096 6.69209 3.00688
upperback 2.86655 8.90373 3.0878
thorax 2.04716 4.48436 1.53354
lowerneck -13.0663 17.0038 2.88996
upperneck 31.2549 25.8752 -3.02417
head 13.5038 11.51 2.48148
rclavicle -1.98785e-016 -2.94201e-014
rhumerus -10.0646 4.01336 -82.8049
rradius 47.5575
rwrist -9.54933
rhand -20.4325 12.6138
rfingers 7.12502
rthumb 5.92229 -17.2834
lclavicle -1.98785e-016 -2.94201e-014
lhumerus -32.6387 28.3175 77.7604
lradius 18.7909
lwrist -24.6116
lhand -0.0753307 37.8726
lfingers 7.12502
lthumb 25.5182 66.1837
rfemur -7.29881 -6.22445 25.5537
rtibia 29.3158
rfoot -23.4644 -11.4685
rtoes -4.66787
lfemur -22.1057 0.449971 -14.6678
ltibia 28.662
lfoot -9.86952 -1.68554
ltoes -47.9855
